<svg width="34" height="34" viewBox="0 0 34 34" fill="none" xmlns="http://www.w3.org/2000/svg">
<path d="M12.8202 18.9131L12.4666 18.5595L11.7595 19.2666L12.1131 19.6202L12.8202 18.9131ZM17 23.8L16.6464 24.1535L17 24.5071L17.3535 24.1535L17 23.8ZM21.8868 19.6202L22.2404 19.2666L21.5333 18.5595L21.1797 18.9131L21.8868 19.6202ZM1.1333 17L0.633301 17L1.1333 17ZM17 1.1333L17 0.633301L17 1.1333ZM17 32.8666L17 32.3666L17 32.8666ZM32.8666 17L32.3666 17L32.8666 17ZM12.1131 19.6202L16.6464 24.1535L17.3535 23.4464L12.8202 18.9131L12.1131 19.6202ZM17.3535 24.1535L21.8868 19.6202L21.1797 18.9131L16.6464 23.4464L17.3535 24.1535ZM17.5 23.8L17.5 9.06663L16.5 9.06663L16.5 23.8L17.5 23.8ZM1.6333 17C1.6333 8.51319 8.51319 1.6333 17 1.6333L17 0.633301C7.9609 0.6333 0.633301 7.9609 0.633301 17L1.6333 17ZM17 32.3666C8.51319 32.3666 1.6333 25.4867 1.6333 17L0.633301 17C0.6333 26.039 7.9609 33.3666 17 33.3666L17 32.3666ZM32.3666 17C32.3666 25.4867 25.4867 32.3666 17 32.3666L17 33.3666C26.039 33.3666 33.3666 26.039 33.3666 17L32.3666 17ZM33.3666 17C33.3666 7.96091 26.039 0.633301 17 0.633301L17 1.6333C25.4867 1.6333 32.3666 8.51319 32.3666 17L33.3666 17Z" fill="#27AE60"/>
</svg>
