<svg width="494" height="789" viewBox="0 0 494 789" fill="none" xmlns="http://www.w3.org/2000/svg">
<g opacity="0.05">
<path opacity="0.91" d="M275.117 174.125C-60.0647 -119.596 -178.262 45.4697 -186.528 58.0501C-186.874 58.577 -186.997 59.1239 -186.991 59.7544L-183.061 482.638C-181.901 607.457 -81.271 709.781 40.5524 682.575C179.056 651.644 341.425 580.378 397.401 416.846C451.187 259.713 301.966 197.652 275.117 174.125Z" fill="#6FCF97"/>
</g>
<g opacity="0.91" filter="url(#filter0_d)">
<path d="M317.788 724.867C196.465 618.574 114.184 594.574 61.4203 598.374C8.69217 602.171 -14.8312 633.753 -18.5999 639.342C-18.8829 639.762 -18.9951 640.204 -18.9894 640.81L-17.0821 845.99C-16.3894 920.5 15.1832 989.943 63.5789 1033.24C111.946 1076.52 177.093 1093.68 245.14 1063.76C315.219 1032.95 379.206 982.872 407.059 901.518C416.852 872.915 417.387 848.696 412.423 828.19C407.457 807.678 396.972 790.815 384.625 776.957C372.274 763.096 358.076 752.258 345.711 743.798C340.866 740.483 336.312 737.54 332.257 734.919C331.136 734.194 330.052 733.494 329.011 732.817C324.232 729.71 320.31 727.076 317.788 724.867Z" stroke="#4F4F4F" stroke-width="2"/>
</g>
<mask id="mask0" mask-type="alpha" maskUnits="userSpaceOnUse" x="-20" y="538" width="362" height="390">
<path opacity="0.69" d="M260.682 643.312C60.4857 468.095 -12.2673 562.01 -19.407 572.441C-19.834 573.065 -19.9963 573.746 -19.9893 574.502L-18.8363 698.403C-17.4447 847.951 113.604 983.175 240.673 904.308C282.152 878.563 317.283 842.121 334.955 790.556C367.623 695.233 276.99 657.585 260.682 643.312Z" fill="#25356A" fill-opacity="0.35"/>
</mask>
<g mask="url(#mask0)">
<circle cx="-0.953357" cy="533.072" r="5.07203" fill="#25356A" fill-opacity="0.35"/>
<circle cx="15.9534" cy="533.072" r="5.07203" fill="#25356A" fill-opacity="0.35"/>
<circle cx="32.8601" cy="533.072" r="5.07203" fill="#25356A" fill-opacity="0.35"/>
<circle cx="49.767" cy="533.072" r="5.07203" fill="#25356A" fill-opacity="0.35"/>
<circle cx="66.6737" cy="533.072" r="5.07203" fill="#25356A" fill-opacity="0.35"/>
<circle cx="83.5806" cy="533.072" r="5.07203" fill="#25356A" fill-opacity="0.35"/>
<circle cx="100.487" cy="533.072" r="5.07203" fill="#25356A" fill-opacity="0.35"/>
<circle cx="117.394" cy="533.072" r="5.07203" fill="#25356A" fill-opacity="0.35"/>
<circle cx="134.301" cy="533.072" r="5.07203" fill="#25356A" fill-opacity="0.35"/>
<circle cx="151.208" cy="533.072" r="5.07203" fill="#25356A" fill-opacity="0.35"/>
<circle cx="168.114" cy="533.072" r="5.07203" fill="#25356A" fill-opacity="0.35"/>
<circle cx="185.021" cy="533.072" r="5.07203" fill="#25356A" fill-opacity="0.35"/>
<circle cx="201.928" cy="533.072" r="5.07203" fill="#25356A" fill-opacity="0.35"/>
<circle cx="218.835" cy="533.072" r="5.07203" fill="#25356A" fill-opacity="0.35"/>
<circle cx="235.741" cy="533.072" r="5.07203" fill="#25356A" fill-opacity="0.35"/>
<circle cx="252.648" cy="533.072" r="5.07203" fill="#25356A" fill-opacity="0.35"/>
<circle cx="269.555" cy="533.072" r="5.07203" fill="#25356A" fill-opacity="0.35"/>
<circle cx="286.462" cy="533.072" r="5.07203" fill="#25356A" fill-opacity="0.35"/>
<circle cx="303.369" cy="533.072" r="5.07203" fill="#25356A" fill-opacity="0.35"/>
<circle cx="320.275" cy="533.072" r="5.07203" fill="#25356A" fill-opacity="0.35"/>
<circle cx="337.182" cy="533.072" r="5.07203" fill="#25356A" fill-opacity="0.35"/>
<circle cx="15.9534" cy="549.979" r="5.07203" fill="#25356A" fill-opacity="0.35"/>
<circle cx="32.8601" cy="549.979" r="5.07203" fill="#25356A" fill-opacity="0.35"/>
<circle cx="49.767" cy="549.979" r="5.07203" fill="#25356A" fill-opacity="0.35"/>
<circle cx="66.6737" cy="549.979" r="5.07203" fill="#25356A" fill-opacity="0.35"/>
<circle cx="83.5806" cy="549.979" r="5.07203" fill="#25356A" fill-opacity="0.35"/>
<circle cx="134.301" cy="549.979" r="5.07203" fill="#25356A" fill-opacity="0.35"/>
<circle cx="151.208" cy="549.979" r="5.07203" fill="#25356A" fill-opacity="0.35"/>
<circle cx="168.114" cy="549.979" r="5.07203" fill="#25356A" fill-opacity="0.35"/>
<circle cx="185.021" cy="549.979" r="5.07203" fill="#25356A" fill-opacity="0.35"/>
<circle cx="201.928" cy="549.979" r="5.07203" fill="#25356A" fill-opacity="0.35"/>
<circle cx="218.835" cy="549.979" r="5.07203" fill="#25356A" fill-opacity="0.35"/>
<circle cx="235.741" cy="549.979" r="5.07203" fill="#25356A" fill-opacity="0.35"/>
<circle cx="252.648" cy="549.979" r="5.07203" fill="#25356A" fill-opacity="0.35"/>
<circle cx="269.555" cy="549.979" r="5.07203" fill="#25356A" fill-opacity="0.35"/>
<circle cx="286.462" cy="549.979" r="5.07203" fill="#25356A" fill-opacity="0.35"/>
<circle cx="303.369" cy="549.979" r="5.07203" fill="#25356A" fill-opacity="0.35"/>
<circle cx="320.275" cy="549.979" r="5.07203" fill="#25356A" fill-opacity="0.35"/>
<circle cx="337.182" cy="549.979" r="5.07203" fill="#25356A" fill-opacity="0.35"/>
<circle cx="-0.953357" cy="566.885" r="5.07203" fill="#25356A" fill-opacity="0.35"/>
<circle cx="15.9534" cy="566.885" r="5.07203" fill="#25356A" fill-opacity="0.35"/>
<circle cx="32.8601" cy="566.885" r="5.07203" fill="#25356A" fill-opacity="0.35"/>
<circle cx="49.767" cy="566.885" r="5.07203" fill="#25356A" fill-opacity="0.35"/>
<circle cx="66.6737" cy="566.885" r="5.07203" fill="#25356A" fill-opacity="0.35"/>
<circle cx="83.5806" cy="566.885" r="5.07203" fill="#25356A" fill-opacity="0.35"/>
<circle cx="100.487" cy="566.885" r="5.07203" fill="#25356A" fill-opacity="0.35"/>
<circle cx="117.394" cy="566.885" r="5.07203" fill="#25356A" fill-opacity="0.35"/>
<circle cx="134.301" cy="566.885" r="5.07203" fill="#25356A" fill-opacity="0.35"/>
<circle cx="168.114" cy="566.885" r="5.07203" fill="#25356A" fill-opacity="0.35"/>
<circle cx="185.021" cy="566.885" r="5.07203" fill="#25356A" fill-opacity="0.35"/>
<circle cx="201.928" cy="566.885" r="5.07203" fill="#25356A" fill-opacity="0.35"/>
<circle cx="218.835" cy="566.885" r="5.07203" fill="#25356A" fill-opacity="0.35"/>
<circle cx="235.741" cy="566.885" r="5.07203" fill="#25356A" fill-opacity="0.35"/>
<circle cx="252.648" cy="566.885" r="5.07203" fill="#25356A" fill-opacity="0.35"/>
<circle cx="269.555" cy="566.885" r="5.07203" fill="#25356A" fill-opacity="0.35"/>
<circle cx="286.462" cy="566.885" r="5.07203" fill="#25356A" fill-opacity="0.35"/>
<circle cx="303.369" cy="566.885" r="5.07203" fill="#25356A" fill-opacity="0.35"/>
<circle cx="320.275" cy="566.885" r="5.07203" fill="#25356A" fill-opacity="0.35"/>
<circle cx="337.182" cy="566.885" r="5.07203" fill="#25356A" fill-opacity="0.35"/>
<circle cx="-0.953357" cy="583.792" r="5.07203" fill="#25356A" fill-opacity="0.35"/>
<circle cx="15.9534" cy="583.792" r="5.07203" fill="#25356A" fill-opacity="0.35"/>
<circle cx="32.8601" cy="583.792" r="5.07203" fill="#25356A" fill-opacity="0.35"/>
<circle cx="49.767" cy="583.792" r="5.07203" fill="#25356A" fill-opacity="0.35"/>
<circle cx="66.6737" cy="583.792" r="5.07203" fill="#25356A" fill-opacity="0.35"/>
<circle cx="83.5806" cy="583.792" r="5.07203" fill="#25356A" fill-opacity="0.35"/>
<circle cx="100.487" cy="583.792" r="5.07203" fill="#25356A" fill-opacity="0.35"/>
<circle cx="117.394" cy="583.792" r="5.07203" fill="#25356A" fill-opacity="0.35"/>
<circle cx="134.301" cy="583.792" r="5.07203" fill="#25356A" fill-opacity="0.35"/>
<circle cx="151.208" cy="583.792" r="5.07203" fill="#25356A" fill-opacity="0.35"/>
<circle cx="168.114" cy="583.792" r="5.07203" fill="#25356A" fill-opacity="0.35"/>
<circle cx="201.928" cy="583.792" r="5.07203" fill="#25356A" fill-opacity="0.35"/>
<circle cx="218.835" cy="583.792" r="5.07203" fill="#25356A" fill-opacity="0.35"/>
<circle cx="235.741" cy="583.792" r="5.07203" fill="#25356A" fill-opacity="0.35"/>
<circle cx="252.648" cy="583.792" r="5.07203" fill="#25356A" fill-opacity="0.35"/>
<circle cx="269.555" cy="583.792" r="5.07203" fill="#25356A" fill-opacity="0.35"/>
<circle cx="286.462" cy="583.792" r="5.07203" fill="#25356A" fill-opacity="0.35"/>
<circle cx="303.369" cy="583.792" r="5.07203" fill="#25356A" fill-opacity="0.35"/>
<circle cx="320.275" cy="583.792" r="5.07203" fill="#25356A" fill-opacity="0.35"/>
<circle cx="337.182" cy="583.792" r="5.07203" fill="#25356A" fill-opacity="0.35"/>
<circle cx="-0.953357" cy="600.699" r="5.07203" fill="#25356A" fill-opacity="0.35"/>
<circle cx="15.9534" cy="600.699" r="5.07203" fill="#25356A" fill-opacity="0.35"/>
<circle cx="32.8601" cy="600.699" r="5.07203" fill="#25356A" fill-opacity="0.35"/>
<circle cx="49.767" cy="600.699" r="5.07203" fill="#25356A" fill-opacity="0.35"/>
<circle cx="66.6737" cy="600.699" r="5.07203" fill="#25356A" fill-opacity="0.35"/>
<circle cx="83.5806" cy="600.699" r="5.07203" fill="#25356A" fill-opacity="0.35"/>
<circle cx="100.487" cy="600.699" r="5.07203" fill="#25356A" fill-opacity="0.35"/>
<circle cx="117.394" cy="600.699" r="5.07203" fill="#25356A" fill-opacity="0.35"/>
<circle cx="134.301" cy="600.699" r="5.07203" fill="#25356A" fill-opacity="0.35"/>
<circle cx="151.208" cy="600.699" r="5.07203" fill="#25356A" fill-opacity="0.35"/>
<circle cx="168.114" cy="600.699" r="5.07203" fill="#25356A" fill-opacity="0.35"/>
<circle cx="185.021" cy="600.699" r="5.07203" fill="#25356A" fill-opacity="0.35"/>
<circle cx="218.835" cy="600.699" r="5.07203" fill="#25356A" fill-opacity="0.35"/>
<circle cx="235.741" cy="600.699" r="5.07203" fill="#25356A" fill-opacity="0.35"/>
<circle cx="252.648" cy="600.699" r="5.07203" fill="#25356A" fill-opacity="0.35"/>
<circle cx="269.555" cy="600.699" r="5.07203" fill="#25356A" fill-opacity="0.35"/>
<circle cx="286.462" cy="600.699" r="5.07203" fill="#25356A" fill-opacity="0.35"/>
<circle cx="303.369" cy="600.699" r="5.07203" fill="#25356A" fill-opacity="0.35"/>
<circle cx="320.275" cy="600.699" r="5.07203" fill="#25356A" fill-opacity="0.35"/>
<circle cx="337.182" cy="600.699" r="5.07203" fill="#25356A" fill-opacity="0.35"/>
<circle cx="-0.953357" cy="617.606" r="5.07203" fill="#25356A" fill-opacity="0.35"/>
<circle cx="15.9534" cy="617.606" r="5.07203" fill="#25356A" fill-opacity="0.35"/>
<circle cx="32.8601" cy="617.606" r="5.07203" fill="#25356A" fill-opacity="0.35"/>
<circle cx="49.767" cy="617.606" r="5.07203" fill="#25356A" fill-opacity="0.35"/>
<circle cx="66.6737" cy="617.606" r="5.07203" fill="#25356A" fill-opacity="0.35"/>
<circle cx="83.5806" cy="617.606" r="5.07203" fill="#25356A" fill-opacity="0.35"/>
<circle cx="100.487" cy="617.606" r="5.07203" fill="#25356A" fill-opacity="0.35"/>
<circle cx="117.394" cy="617.606" r="5.07203" fill="#25356A" fill-opacity="0.35"/>
<circle cx="134.301" cy="617.606" r="5.07203" fill="#25356A" fill-opacity="0.35"/>
<circle cx="151.208" cy="617.606" r="5.07203" fill="#25356A" fill-opacity="0.35"/>
<circle cx="168.114" cy="617.606" r="5.07203" fill="#25356A" fill-opacity="0.35"/>
<circle cx="185.021" cy="617.606" r="5.07203" fill="#25356A" fill-opacity="0.35"/>
<circle cx="201.928" cy="617.606" r="5.07203" fill="#25356A" fill-opacity="0.35"/>
<circle cx="218.835" cy="617.606" r="5.07203" fill="#25356A" fill-opacity="0.35"/>
<circle cx="252.648" cy="617.606" r="5.07203" fill="#25356A" fill-opacity="0.35"/>
<circle cx="269.555" cy="617.606" r="5.07203" fill="#25356A" fill-opacity="0.35"/>
<circle cx="286.462" cy="617.606" r="5.07203" fill="#25356A" fill-opacity="0.35"/>
<circle cx="303.369" cy="617.606" r="5.07203" fill="#25356A" fill-opacity="0.35"/>
<circle cx="320.275" cy="617.606" r="5.07203" fill="#25356A" fill-opacity="0.35"/>
<circle cx="337.182" cy="617.606" r="5.07203" fill="#25356A" fill-opacity="0.35"/>
<circle cx="-0.953357" cy="634.513" r="5.07203" fill="#25356A" fill-opacity="0.35"/>
<circle cx="15.9534" cy="634.513" r="5.07203" fill="#25356A" fill-opacity="0.35"/>
<circle cx="32.8601" cy="634.513" r="5.07203" fill="#25356A" fill-opacity="0.35"/>
<circle cx="49.767" cy="634.513" r="5.07203" fill="#25356A" fill-opacity="0.35"/>
<circle cx="66.6737" cy="634.513" r="5.07203" fill="#25356A" fill-opacity="0.35"/>
<circle cx="83.5806" cy="634.513" r="5.07203" fill="#25356A" fill-opacity="0.35"/>
<circle cx="100.487" cy="634.513" r="5.07203" fill="#25356A" fill-opacity="0.35"/>
<circle cx="117.394" cy="634.513" r="5.07203" fill="#25356A" fill-opacity="0.35"/>
<circle cx="134.301" cy="634.513" r="5.07203" fill="#25356A" fill-opacity="0.35"/>
<circle cx="151.208" cy="634.513" r="5.07203" fill="#25356A" fill-opacity="0.35"/>
<circle cx="168.114" cy="634.513" r="5.07203" fill="#25356A" fill-opacity="0.35"/>
<circle cx="185.021" cy="634.513" r="5.07203" fill="#25356A" fill-opacity="0.35"/>
<circle cx="201.928" cy="634.513" r="5.07203" fill="#25356A" fill-opacity="0.35"/>
<circle cx="218.835" cy="634.513" r="5.07203" fill="#25356A" fill-opacity="0.35"/>
<circle cx="235.741" cy="634.513" r="5.07203" fill="#25356A" fill-opacity="0.35"/>
<circle cx="269.555" cy="634.513" r="5.07203" fill="#25356A" fill-opacity="0.35"/>
<circle cx="286.462" cy="634.513" r="5.07203" fill="#25356A" fill-opacity="0.35"/>
<circle cx="303.369" cy="634.513" r="5.07203" fill="#25356A" fill-opacity="0.35"/>
<circle cx="320.275" cy="634.513" r="5.07203" fill="#25356A" fill-opacity="0.35"/>
<circle cx="337.182" cy="634.513" r="5.07203" fill="#25356A" fill-opacity="0.35"/>
<circle cx="-0.953357" cy="651.419" r="5.07203" fill="#25356A" fill-opacity="0.35"/>
<circle cx="15.9534" cy="651.419" r="5.07203" fill="#25356A" fill-opacity="0.35"/>
<circle cx="32.8601" cy="651.419" r="5.07203" fill="#25356A" fill-opacity="0.35"/>
<circle cx="49.767" cy="651.419" r="5.07203" fill="#25356A" fill-opacity="0.35"/>
<circle cx="66.6737" cy="651.419" r="5.07203" fill="#25356A" fill-opacity="0.35"/>
<circle cx="83.5806" cy="651.419" r="5.07203" fill="#25356A" fill-opacity="0.35"/>
<circle cx="100.487" cy="651.419" r="5.07203" fill="#25356A" fill-opacity="0.35"/>
<circle cx="117.394" cy="651.419" r="5.07203" fill="#25356A" fill-opacity="0.35"/>
<circle cx="134.301" cy="651.419" r="5.07203" fill="#25356A" fill-opacity="0.35"/>
<circle cx="151.208" cy="651.419" r="5.07203" fill="#25356A" fill-opacity="0.35"/>
<circle cx="168.114" cy="651.419" r="5.07203" fill="#25356A" fill-opacity="0.35"/>
<circle cx="185.021" cy="651.419" r="5.07203" fill="#25356A" fill-opacity="0.35"/>
<circle cx="201.928" cy="651.419" r="5.07203" fill="#25356A" fill-opacity="0.35"/>
<circle cx="218.835" cy="651.419" r="5.07203" fill="#25356A" fill-opacity="0.35"/>
<circle cx="235.741" cy="651.419" r="5.07203" fill="#25356A" fill-opacity="0.35"/>
<circle cx="252.648" cy="651.419" r="5.07203" fill="#25356A" fill-opacity="0.35"/>
<circle cx="286.462" cy="651.419" r="5.07203" fill="#25356A" fill-opacity="0.35"/>
<circle cx="303.369" cy="651.419" r="5.07203" fill="#25356A" fill-opacity="0.35"/>
<circle cx="320.275" cy="651.419" r="5.07203" fill="#25356A" fill-opacity="0.35"/>
<circle cx="337.182" cy="651.419" r="5.07203" fill="#25356A" fill-opacity="0.35"/>
<circle cx="-0.953357" cy="668.326" r="5.07203" fill="#25356A" fill-opacity="0.35"/>
<circle cx="15.9534" cy="668.326" r="5.07203" fill="#25356A" fill-opacity="0.35"/>
<circle cx="32.8601" cy="668.326" r="5.07203" fill="#25356A" fill-opacity="0.35"/>
<circle cx="49.767" cy="668.326" r="5.07203" fill="#25356A" fill-opacity="0.35"/>
<circle cx="66.6737" cy="668.326" r="5.07203" fill="#25356A" fill-opacity="0.35"/>
<circle cx="83.5806" cy="668.326" r="5.07203" fill="#25356A" fill-opacity="0.35"/>
<circle cx="100.487" cy="668.326" r="5.07203" fill="#25356A" fill-opacity="0.35"/>
<circle cx="117.394" cy="668.326" r="5.07203" fill="#25356A" fill-opacity="0.35"/>
<circle cx="134.301" cy="668.326" r="5.07203" fill="#25356A" fill-opacity="0.35"/>
<circle cx="151.208" cy="668.326" r="5.07203" fill="#25356A" fill-opacity="0.35"/>
<circle cx="168.114" cy="668.326" r="5.07203" fill="#25356A" fill-opacity="0.35"/>
<circle cx="185.021" cy="668.326" r="5.07203" fill="#25356A" fill-opacity="0.35"/>
<circle cx="201.928" cy="668.326" r="5.07203" fill="#25356A" fill-opacity="0.35"/>
<circle cx="218.835" cy="668.326" r="5.07203" fill="#25356A" fill-opacity="0.35"/>
<circle cx="235.741" cy="668.326" r="5.07203" fill="#25356A" fill-opacity="0.35"/>
<circle cx="252.648" cy="668.326" r="5.07203" fill="#25356A" fill-opacity="0.35"/>
<circle cx="269.555" cy="668.326" r="5.07203" fill="#25356A" fill-opacity="0.35"/>
<circle cx="286.462" cy="668.326" r="5.07203" fill="#25356A" fill-opacity="0.35"/>
<circle cx="320.275" cy="668.326" r="5.07203" fill="#25356A" fill-opacity="0.35"/>
<circle cx="337.182" cy="668.326" r="5.07203" fill="#25356A" fill-opacity="0.35"/>
<circle cx="-0.953357" cy="685.233" r="5.07203" fill="#25356A" fill-opacity="0.35"/>
<circle cx="15.9534" cy="685.233" r="5.07203" fill="#25356A" fill-opacity="0.35"/>
<circle cx="32.8601" cy="685.233" r="5.07203" fill="#25356A" fill-opacity="0.35"/>
<circle cx="49.767" cy="685.233" r="5.07203" fill="#25356A" fill-opacity="0.35"/>
<circle cx="66.6737" cy="685.233" r="5.07203" fill="#25356A" fill-opacity="0.35"/>
<circle cx="83.5806" cy="685.233" r="5.07203" fill="#25356A" fill-opacity="0.35"/>
<circle cx="100.487" cy="685.233" r="5.07203" fill="#25356A" fill-opacity="0.35"/>
<circle cx="117.394" cy="685.233" r="5.07203" fill="#25356A" fill-opacity="0.35"/>
<circle cx="134.301" cy="685.233" r="5.07203" fill="#25356A" fill-opacity="0.35"/>
<circle cx="151.208" cy="685.233" r="5.07203" fill="#25356A" fill-opacity="0.35"/>
<circle cx="168.114" cy="685.233" r="5.07203" fill="#25356A" fill-opacity="0.35"/>
<circle cx="185.021" cy="685.233" r="5.07203" fill="#25356A" fill-opacity="0.35"/>
<circle cx="201.928" cy="685.233" r="5.07203" fill="#25356A" fill-opacity="0.35"/>
<circle cx="218.835" cy="685.233" r="5.07203" fill="#25356A" fill-opacity="0.35"/>
<circle cx="235.741" cy="685.233" r="5.07203" fill="#25356A" fill-opacity="0.35"/>
<circle cx="252.648" cy="685.233" r="5.07203" fill="#25356A" fill-opacity="0.35"/>
<circle cx="269.555" cy="685.233" r="5.07203" fill="#25356A" fill-opacity="0.35"/>
<circle cx="286.462" cy="685.233" r="5.07203" fill="#25356A" fill-opacity="0.35"/>
<circle cx="303.369" cy="685.233" r="5.07203" fill="#25356A" fill-opacity="0.35"/>
<circle cx="337.182" cy="685.233" r="5.07203" fill="#25356A" fill-opacity="0.35"/>
<circle cx="-0.953357" cy="702.14" r="5.07203" fill="#25356A" fill-opacity="0.35"/>
<circle cx="15.9534" cy="702.14" r="5.07203" fill="#25356A" fill-opacity="0.35"/>
<circle cx="32.8601" cy="702.14" r="5.07203" fill="#25356A" fill-opacity="0.35"/>
<circle cx="49.767" cy="702.14" r="5.07203" fill="#25356A" fill-opacity="0.35"/>
<circle cx="66.6737" cy="702.14" r="5.07203" fill="#25356A" fill-opacity="0.35"/>
<circle cx="83.5806" cy="702.14" r="5.07203" fill="#25356A" fill-opacity="0.35"/>
<circle cx="100.487" cy="702.14" r="5.07203" fill="#25356A" fill-opacity="0.35"/>
<circle cx="117.394" cy="702.14" r="5.07203" fill="#25356A" fill-opacity="0.35"/>
<circle cx="134.301" cy="702.14" r="5.07203" fill="#25356A" fill-opacity="0.35"/>
<circle cx="151.208" cy="702.14" r="5.07203" fill="#25356A" fill-opacity="0.35"/>
<circle cx="168.114" cy="702.14" r="5.07203" fill="#25356A" fill-opacity="0.35"/>
<circle cx="185.021" cy="702.14" r="5.07203" fill="#25356A" fill-opacity="0.35"/>
<circle cx="201.928" cy="702.14" r="5.07203" fill="#25356A" fill-opacity="0.35"/>
<circle cx="218.835" cy="702.14" r="5.07203" fill="#25356A" fill-opacity="0.35"/>
<circle cx="235.741" cy="702.14" r="5.07203" fill="#25356A" fill-opacity="0.35"/>
<circle cx="252.648" cy="702.14" r="5.07203" fill="#25356A" fill-opacity="0.35"/>
<circle cx="269.555" cy="702.14" r="5.07203" fill="#25356A" fill-opacity="0.35"/>
<circle cx="286.462" cy="702.14" r="5.07203" fill="#25356A" fill-opacity="0.35"/>
<circle cx="303.369" cy="702.14" r="5.07203" fill="#25356A" fill-opacity="0.35"/>
<circle cx="320.275" cy="702.14" r="5.07203" fill="#25356A" fill-opacity="0.35"/>
<circle cx="337.182" cy="702.14" r="5.07203" fill="#25356A" fill-opacity="0.35"/>
<circle cx="-0.953357" cy="719.047" r="5.07203" fill="#25356A" fill-opacity="0.35"/>
<circle cx="15.9534" cy="719.047" r="5.07203" fill="#25356A" fill-opacity="0.35"/>
<circle cx="32.8601" cy="719.047" r="5.07203" fill="#25356A" fill-opacity="0.35"/>
<circle cx="49.767" cy="719.047" r="5.07203" fill="#25356A" fill-opacity="0.35"/>
<circle cx="66.6737" cy="719.047" r="5.07203" fill="#25356A" fill-opacity="0.35"/>
<circle cx="83.5806" cy="719.047" r="5.07203" fill="#25356A" fill-opacity="0.35"/>
<circle cx="100.487" cy="719.047" r="5.07203" fill="#25356A" fill-opacity="0.35"/>
<circle cx="117.394" cy="719.047" r="5.07203" fill="#25356A" fill-opacity="0.35"/>
<circle cx="134.301" cy="719.047" r="5.07203" fill="#25356A" fill-opacity="0.35"/>
<circle cx="151.208" cy="719.047" r="5.07203" fill="#25356A" fill-opacity="0.35"/>
<circle cx="168.114" cy="719.047" r="5.07203" fill="#25356A" fill-opacity="0.35"/>
<circle cx="185.021" cy="719.047" r="5.07203" fill="#25356A" fill-opacity="0.35"/>
<circle cx="201.928" cy="719.047" r="5.07203" fill="#25356A" fill-opacity="0.35"/>
<circle cx="218.835" cy="719.047" r="5.07203" fill="#25356A" fill-opacity="0.35"/>
<circle cx="235.741" cy="719.047" r="5.07203" fill="#25356A" fill-opacity="0.35"/>
<circle cx="252.648" cy="719.047" r="5.07203" fill="#25356A" fill-opacity="0.35"/>
<circle cx="269.555" cy="719.047" r="5.07203" fill="#25356A" fill-opacity="0.35"/>
<circle cx="286.462" cy="719.047" r="5.07203" fill="#25356A" fill-opacity="0.35"/>
<circle cx="303.369" cy="719.047" r="5.07203" fill="#25356A" fill-opacity="0.35"/>
<circle cx="320.275" cy="719.047" r="5.07203" fill="#25356A" fill-opacity="0.35"/>
<circle cx="-0.953357" cy="735.953" r="5.07203" fill="#25356A" fill-opacity="0.35"/>
<circle cx="15.9534" cy="735.953" r="5.07203" fill="#25356A" fill-opacity="0.35"/>
<circle cx="32.8601" cy="735.953" r="5.07203" fill="#25356A" fill-opacity="0.35"/>
<circle cx="49.767" cy="735.953" r="5.07203" fill="#25356A" fill-opacity="0.35"/>
<circle cx="66.6737" cy="735.953" r="5.07203" fill="#25356A" fill-opacity="0.35"/>
<circle cx="83.5806" cy="735.953" r="5.07203" fill="#25356A" fill-opacity="0.35"/>
<circle cx="100.487" cy="735.953" r="5.07203" fill="#25356A" fill-opacity="0.35"/>
<circle cx="117.394" cy="735.953" r="5.07203" fill="#25356A" fill-opacity="0.35"/>
<circle cx="134.301" cy="735.953" r="5.07203" fill="#25356A" fill-opacity="0.35"/>
<circle cx="151.208" cy="735.953" r="5.07203" fill="#25356A" fill-opacity="0.35"/>
<circle cx="168.114" cy="735.953" r="5.07203" fill="#25356A" fill-opacity="0.35"/>
<circle cx="185.021" cy="735.953" r="5.07203" fill="#25356A" fill-opacity="0.35"/>
<circle cx="201.928" cy="735.953" r="5.07203" fill="#25356A" fill-opacity="0.35"/>
<circle cx="218.835" cy="735.953" r="5.07203" fill="#25356A" fill-opacity="0.35"/>
<circle cx="235.741" cy="735.953" r="5.07203" fill="#25356A" fill-opacity="0.35"/>
<circle cx="252.648" cy="735.953" r="5.07203" fill="#25356A" fill-opacity="0.35"/>
<circle cx="269.555" cy="735.953" r="5.07203" fill="#25356A" fill-opacity="0.35"/>
<circle cx="286.462" cy="735.953" r="5.07203" fill="#25356A" fill-opacity="0.35"/>
<circle cx="303.369" cy="735.953" r="5.07203" fill="#25356A" fill-opacity="0.35"/>
<circle cx="320.275" cy="735.953" r="5.07203" fill="#25356A" fill-opacity="0.35"/>
<circle cx="-0.953357" cy="752.86" r="5.07203" fill="#25356A" fill-opacity="0.35"/>
<circle cx="15.9534" cy="752.86" r="5.07203" fill="#25356A" fill-opacity="0.35"/>
<circle cx="32.8601" cy="752.86" r="5.07203" fill="#25356A" fill-opacity="0.35"/>
<circle cx="49.767" cy="752.86" r="5.07203" fill="#25356A" fill-opacity="0.35"/>
<circle cx="66.6737" cy="752.86" r="5.07203" fill="#25356A" fill-opacity="0.35"/>
<circle cx="83.5806" cy="752.86" r="5.07203" fill="#25356A" fill-opacity="0.35"/>
<circle cx="100.487" cy="752.86" r="5.07203" fill="#25356A" fill-opacity="0.35"/>
<circle cx="117.394" cy="752.86" r="5.07203" fill="#25356A" fill-opacity="0.35"/>
<circle cx="134.301" cy="752.86" r="5.07203" fill="#25356A" fill-opacity="0.35"/>
<circle cx="151.208" cy="752.86" r="5.07203" fill="#25356A" fill-opacity="0.35"/>
<circle cx="168.114" cy="752.86" r="5.07203" fill="#25356A" fill-opacity="0.35"/>
<circle cx="185.021" cy="752.86" r="5.07203" fill="#25356A" fill-opacity="0.35"/>
<circle cx="201.928" cy="752.86" r="5.07203" fill="#25356A" fill-opacity="0.35"/>
<circle cx="218.835" cy="752.86" r="5.07203" fill="#25356A" fill-opacity="0.35"/>
<circle cx="235.741" cy="752.86" r="5.07203" fill="#25356A" fill-opacity="0.35"/>
<circle cx="252.648" cy="752.86" r="5.07203" fill="#25356A" fill-opacity="0.35"/>
<circle cx="269.555" cy="752.86" r="5.07203" fill="#25356A" fill-opacity="0.35"/>
<circle cx="286.462" cy="752.86" r="5.07203" fill="#25356A" fill-opacity="0.35"/>
<circle cx="303.369" cy="752.86" r="5.07203" fill="#25356A" fill-opacity="0.35"/>
<circle cx="320.275" cy="752.86" r="5.07203" fill="#25356A" fill-opacity="0.35"/>
<circle cx="337.182" cy="752.86" r="5.07203" fill="#25356A" fill-opacity="0.35"/>
<circle cx="-0.953357" cy="769.767" r="5.07203" fill="#25356A" fill-opacity="0.35"/>
<circle cx="15.9534" cy="769.767" r="5.07203" fill="#25356A" fill-opacity="0.35"/>
<circle cx="32.8601" cy="769.767" r="5.07203" fill="#25356A" fill-opacity="0.35"/>
<circle cx="49.767" cy="769.767" r="5.07203" fill="#25356A" fill-opacity="0.35"/>
<circle cx="66.6737" cy="769.767" r="5.07203" fill="#25356A" fill-opacity="0.35"/>
<circle cx="83.5806" cy="769.767" r="5.07203" fill="#25356A" fill-opacity="0.35"/>
<circle cx="100.487" cy="769.767" r="5.07203" fill="#25356A" fill-opacity="0.35"/>
<circle cx="117.394" cy="769.767" r="5.07203" fill="#25356A" fill-opacity="0.35"/>
<circle cx="134.301" cy="769.767" r="5.07203" fill="#25356A" fill-opacity="0.35"/>
<circle cx="151.208" cy="769.767" r="5.07203" fill="#25356A" fill-opacity="0.35"/>
<circle cx="168.114" cy="769.767" r="5.07203" fill="#25356A" fill-opacity="0.35"/>
<circle cx="185.021" cy="769.767" r="5.07203" fill="#25356A" fill-opacity="0.35"/>
<circle cx="201.928" cy="769.767" r="5.07203" fill="#25356A" fill-opacity="0.35"/>
<circle cx="218.835" cy="769.767" r="5.07203" fill="#25356A" fill-opacity="0.35"/>
<circle cx="235.741" cy="769.767" r="5.07203" fill="#25356A" fill-opacity="0.35"/>
<circle cx="252.648" cy="769.767" r="5.07203" fill="#25356A" fill-opacity="0.35"/>
<circle cx="269.555" cy="769.767" r="5.07203" fill="#25356A" fill-opacity="0.35"/>
<circle cx="286.462" cy="769.767" r="5.07203" fill="#25356A" fill-opacity="0.35"/>
<circle cx="303.369" cy="769.767" r="5.07203" fill="#25356A" fill-opacity="0.35"/>
<circle cx="320.275" cy="769.767" r="5.07203" fill="#25356A" fill-opacity="0.35"/>
<circle cx="-0.953357" cy="786.674" r="5.07203" fill="#25356A" fill-opacity="0.35"/>
<circle cx="15.9534" cy="786.674" r="5.07203" fill="#25356A" fill-opacity="0.35"/>
<circle cx="32.8601" cy="786.674" r="5.07203" fill="#25356A" fill-opacity="0.35"/>
<circle cx="49.767" cy="786.674" r="5.07203" fill="#25356A" fill-opacity="0.35"/>
<circle cx="66.6737" cy="786.674" r="5.07203" fill="#25356A" fill-opacity="0.35"/>
<circle cx="83.5806" cy="786.674" r="5.07203" fill="#25356A" fill-opacity="0.35"/>
<circle cx="100.487" cy="786.674" r="5.07203" fill="#25356A" fill-opacity="0.35"/>
<circle cx="117.394" cy="786.674" r="5.07203" fill="#25356A" fill-opacity="0.35"/>
<circle cx="134.301" cy="786.674" r="5.07203" fill="#25356A" fill-opacity="0.35"/>
<circle cx="151.208" cy="786.674" r="5.07203" fill="#25356A" fill-opacity="0.35"/>
<circle cx="168.114" cy="786.674" r="5.07203" fill="#25356A" fill-opacity="0.35"/>
<circle cx="185.021" cy="786.674" r="5.07203" fill="#25356A" fill-opacity="0.35"/>
<circle cx="201.928" cy="786.674" r="5.07203" fill="#25356A" fill-opacity="0.35"/>
<circle cx="218.835" cy="786.674" r="5.07203" fill="#25356A" fill-opacity="0.35"/>
<circle cx="235.741" cy="786.674" r="5.07203" fill="#25356A" fill-opacity="0.35"/>
<circle cx="252.648" cy="786.674" r="5.07203" fill="#25356A" fill-opacity="0.35"/>
<circle cx="269.555" cy="786.674" r="5.07203" fill="#25356A" fill-opacity="0.35"/>
<circle cx="286.462" cy="786.674" r="5.07203" fill="#25356A" fill-opacity="0.35"/>
<circle cx="303.369" cy="786.674" r="5.07203" fill="#25356A" fill-opacity="0.35"/>
<circle cx="320.275" cy="786.674" r="5.07203" fill="#25356A" fill-opacity="0.35"/>
</g>
<g opacity="0.91" filter="url(#filter1_d)">
<path d="M298.447 724.115C55.6277 511.377 -31.7042 627.327 -39.429 638.783C-39.8513 639.409 -39.9964 640.063 -39.9894 640.819L-38.082 845.999C-36.6919 995.544 88.6374 1124.87 225.543 1064.68C295.772 1033.8 360.03 983.552 388.005 901.842C427.397 786.785 318.11 741.342 298.447 724.115Z" fill="#6FCF97"/>
</g>
<defs>
<filter id="filter0_d" x="-55.9559" y="561.034" width="549.293" height="595.581" filterUnits="userSpaceOnUse" color-interpolation-filters="sRGB">
<feFlood flood-opacity="0" result="BackgroundImageFix"/>
<feColorMatrix in="SourceAlpha" type="matrix" values="0 0 0 0 0 0 0 0 0 0 0 0 0 0 0 0 0 0 127 0"/>
<feOffset dx="20.4354" dy="20.4354"/>
<feGaussianBlur stdDeviation="28.2009"/>
<feColorMatrix type="matrix" values="0 0 0 0 0 0 0 0 0 0 0 0 0 0 0 0 0 0 0.04 0"/>
<feBlend mode="normal" in2="BackgroundImageFix" result="effect1_dropShadow"/>
<feBlend mode="normal" in="SourceGraphic" in2="effect1_dropShadow" result="shape"/>
</filter>
<filter id="filter1_d" x="-75.9559" y="561.034" width="549.293" height="595.581" filterUnits="userSpaceOnUse" color-interpolation-filters="sRGB">
<feFlood flood-opacity="0" result="BackgroundImageFix"/>
<feColorMatrix in="SourceAlpha" type="matrix" values="0 0 0 0 0 0 0 0 0 0 0 0 0 0 0 0 0 0 127 0"/>
<feOffset dx="20.4354" dy="20.4354"/>
<feGaussianBlur stdDeviation="28.2009"/>
<feColorMatrix type="matrix" values="0 0 0 0 0 0 0 0 0 0 0 0 0 0 0 0 0 0 0.04 0"/>
<feBlend mode="normal" in2="BackgroundImageFix" result="effect1_dropShadow"/>
<feBlend mode="normal" in="SourceGraphic" in2="effect1_dropShadow" result="shape"/>
</filter>
</defs>
</svg>
