<svg width="22" height="20" viewBox="0 0 22 20" fill="none" xmlns="http://www.w3.org/2000/svg">
<path d="M20.3046 2L21.3024 1.93385C21.2758 1.5327 21.0116 1.18649 20.6317 1.055C20.2518 0.92351 19.83 1.03231 19.5612 1.33119L20.3046 2ZM19.9733 5.94521C19.9733 5.39292 19.5256 4.94521 18.9733 4.94521C18.421 4.94521 17.9733 5.39292 17.9733 5.94521H19.9733ZM10.9857 6.05479H9.98568V6.05479L10.9857 6.05479ZM10.9857 7.33333L11.9857 7.33333V7.33333L10.9857 7.33333ZM1.66675 16.6667V15.6667C1.22621 15.6667 0.83757 15.955 0.709759 16.3765C0.581949 16.7981 0.745081 17.2537 1.11145 17.4983L1.66675 16.6667ZM2.99802 2L3.93453 1.64935C3.79499 1.27668 3.44778 1.02221 3.05038 1.00137C2.65299 0.980536 2.28106 1.1973 2.10332 1.55334L2.99802 2ZM8.32313 14L9.03078 14.7066C9.2755 14.4615 9.37597 14.1072 9.29634 13.7701C9.21671 13.433 8.96832 13.1611 8.63979 13.0515L8.32313 14ZM17.9548 3.29784L17.2131 3.96853L17.5734 4.36701L18.1046 4.28657L17.9548 3.29784ZM19.3068 2.06615C19.3744 3.08647 19.3079 3.66271 19.1623 4.0733C19.024 4.46298 18.781 4.79932 18.2815 5.27798L19.6652 6.72202C20.2658 6.14653 20.7593 5.55344 21.0472 4.74195C21.3276 3.95136 21.3767 3.05467 21.3024 1.93385L19.3068 2.06615ZM19.9733 6.91666V5.94521H17.9733V6.91666H19.9733ZM9.98568 6.05479L9.98568 7.33333L11.9857 7.33333L11.9857 6.05479L9.98568 6.05479ZM9.98568 7.33333L9.98568 8L11.9857 8L11.9857 7.33333L9.98568 7.33333ZM15.0342 1C12.2445 1 9.98568 3.26457 9.98568 6.05479H11.9857C11.9857 4.36622 13.352 3 15.0342 3V1ZM17.9733 6.91666C17.9733 12.487 13.4651 17 7.90709 17V19C14.5725 19 19.9733 13.5886 19.9733 6.91666H17.9733ZM2.06152 2.35065C2.81544 4.36423 5.63211 8.33333 10.9857 8.33333V6.33333C6.75406 6.33333 4.51188 3.19133 3.93453 1.64935L2.06152 2.35065ZM2.10332 1.55334C0.675506 4.41338 0.43616 7.23056 1.50005 9.65222C2.56046 12.066 4.82819 13.8875 8.00646 14.9485L8.63979 13.0515C5.82732 12.1125 4.10123 10.6007 3.33113 8.84778C2.56452 7.10278 2.65799 4.91995 3.89273 2.44666L2.10332 1.55334ZM7.61547 13.2934C6.855 14.0551 4.52141 15.6667 1.66675 15.6667V17.6667C5.2022 17.6667 8.01624 15.7227 9.03078 14.7066L7.61547 13.2934ZM18.6966 2.62716C17.7944 1.62942 16.4872 1 15.0342 1V3C15.8979 3 16.6737 3.37203 17.2131 3.96853L18.6966 2.62716ZM18.1046 4.28657C19.1979 4.12098 20.2562 3.54896 21.048 2.66881L19.5612 1.33119C19.0669 1.88056 18.4227 2.21557 17.8051 2.30912L18.1046 4.28657ZM1.11145 17.4983C3.39437 19.0226 5.78892 19 7.90709 19V17C5.72284 17 3.93295 16.9774 2.22204 15.835L1.11145 17.4983Z" fill="#27AE60"/>
</svg>
